<?xml version="1.0" standalone="no"?>
<!DOCTYPE svg PUBLIC "-//W3C//DTD SVG 20010904//EN"
 "http://www.w3.org/TR/2001/REC-SVG-20010904/DTD/svg10.dtd">
<svg version="1.0" xmlns="http://www.w3.org/2000/svg"
 width="286.000000pt" height="286.000000pt" viewBox="0 0 286.000000 286.000000"
 preserveAspectRatio="xMidYMid meet">

<g transform="translate(0.000000,286.000000) scale(0.100000,-0.100000)"
fill="#000000" stroke="none">
<path d="M1396 2708 c-10 -14 -16 -44 -16 -75 l0 -53 -78 0 c-85 0 -102 -8
-102 -50 0 -45 27 -60 108 -60 l72 0 0 -95 0 -94 -42 -19 c-53 -23 -127 -102
-165 -173 -25 -49 -28 -63 -28 -161 0 -68 -4 -104 -10 -100 -5 3 -29 19 -53
35 -63 42 -164 86 -250 108 -83 21 -228 25 -301 8 -165 -38 -319 -197 -370
-384 -29 -107 -5 -262 60 -373 43 -75 165 -200 257 -263 42 -29 80 -58 84 -63
4 -6 7 -129 7 -274 -1 -237 1 -265 16 -282 25 -28 185 -103 281 -134 185 -57
290 -71 539 -70 211 0 241 2 359 27 139 30 289 81 376 130 98 54 90 27 90 313
l0 252 82 55 c271 181 408 375 408 577 0 132 -53 243 -165 349 -112 105 -235
151 -401 151 -122 0 -241 -30 -349 -89 l-70 -39 -1 77 c0 60 -6 89 -26 131
-39 85 -98 152 -162 186 l-56 29 0 93 0 92 75 0 c62 0 79 4 95 20 24 24 25 38
4 68 -13 20 -24 22 -95 22 l-79 0 0 58 c0 44 -5 63 -18 75 -26 23 -58 21 -76
-5z m103 -553 c35 -18 75 -64 103 -119 16 -31 21 -59 21 -111 -1 -104 -23
-173 -75 -237 -25 -30 -60 -80 -79 -111 -19 -31 -36 -57 -40 -57 -3 0 -25 27
-50 61 -24 33 -54 73 -65 89 -28 38 -64 184 -64 261 0 50 6 72 32 122 55 103
140 143 217 102z m-696 -291 c212 -55 410 -212 541 -430 l36 -59 0 -126 0
-126 -147 -11 c-208 -17 -390 -58 -549 -123 -30 -12 -35 -10 -119 45 -122 82
-216 180 -262 274 -36 72 -38 81 -38 172 0 85 4 102 32 162 33 71 107 159 158
186 96 53 230 67 348 36z m1483 2 c121 -32 238 -126 290 -232 25 -51 29 -71
29 -145 0 -79 -3 -91 -39 -165 -49 -98 -169 -222 -297 -307 l-86 -57 -87 36
c-115 47 -286 90 -416 104 -58 6 -124 13 -147 16 l-43 5 0 125 c0 116 2 129
29 188 96 211 281 374 491 430 70 19 210 20 276 2z m-584 -881 c126 -19 238
-48 338 -87 l80 -31 0 -69 c0 -52 -3 -68 -12 -64 -182 74 -470 126 -708 126
-238 0 -526 -52 -707 -126 -10 -4 -13 12 -13 64 l0 71 80 30 c103 40 253 76
372 90 51 6 109 13 128 15 67 8 346 -4 442 -19z m3 -260 c126 -19 236 -47 337
-86 l78 -30 0 -71 c0 -52 -3 -68 -12 -65 -78 33 -249 80 -353 98 -188 33 -522
33 -710 0 -104 -18 -275 -65 -352 -98 -10 -3 -13 13 -13 65 l0 71 78 30 c131
50 310 89 482 105 86 8 366 -3 465 -19z m-115 -246 c63 -6 158 -19 210 -30
116 -24 255 -69 243 -79 -14 -12 -137 -58 -204 -75 -258 -67 -568 -72 -824
-13 -92 21 -243 72 -259 88 -4 5 33 22 85 38 218 70 488 96 749 71z"/>
</g>
</svg>
