<?xml version="1.0" standalone="no"?>
<!DOCTYPE svg PUBLIC "-//W3C//DTD SVG 20010904//EN"
 "http://www.w3.org/TR/2001/REC-SVG-20010904/DTD/svg10.dtd">
<svg version="1.0" xmlns="http://www.w3.org/2000/svg"
 width="286.000000pt" height="286.000000pt" viewBox="0 0 286.000000 286.000000"
 preserveAspectRatio="xMidYMid meet">

<g transform="translate(0.000000,286.000000) scale(0.100000,-0.100000)"
fill="#000000" stroke="none">
<path d="M540 2580 c-19 -19 -20 -33 -20 -223 l0 -202 110 -110 110 -110 -1
-455 0 -455 -38 -59 c-20 -33 -50 -67 -67 -76 l-29 -17 -3 -136 -3 -137 -94 0
c-132 0 -140 -11 -133 -200 3 -93 5 -103 27 -121 23 -19 50 -19 1037 -17 957
3 1014 4 1031 21 14 14 19 38 21 118 7 187 -1 199 -133 199 l-94 0 -3 137 -3
136 -29 17 c-17 9 -47 43 -67 76 l-38 59 0 455 -1 455 110 110 110 110 0 202
c0 262 16 243 -203 243 -201 0 -207 -3 -207 -91 l0 -59 -130 0 -130 0 0 59 c0
90 -2 91 -240 91 -238 0 -240 -1 -240 -91 l0 -59 -130 0 -130 0 0 55 c0 92 -8
95 -205 95 -152 0 -167 -2 -185 -20z m280 -147 c0 -94 -2 -93 238 -93 243 0
242 -1 242 92 l0 58 130 0 130 0 0 -57 c0 -94 -2 -93 238 -93 243 0 242 -1
242 92 l0 58 95 0 95 0 0 -130 0 -130 -800 0 -800 0 0 130 0 130 95 0 95 0 0
-57z m1320 -320 c0 -4 -21 -29 -47 -55 l-47 -48 -615 0 -615 0 -48 47 c-26 26
-48 51 -48 55 0 4 320 8 710 8 391 0 710 -3 710 -7z m-140 -598 l0 -435 -570
0 -570 0 0 435 0 435 570 0 570 0 0 -435z m10 -506 c0 -7 14 -34 30 -61 17
-26 30 -50 30 -53 0 -3 -288 -5 -640 -5 -352 0 -640 2 -640 5 0 3 14 27 30 53
17 27 30 54 30 61 0 8 153 11 580 11 427 0 580 -3 580 -11z m140 -319 l0 -90
-720 0 -720 0 0 90 0 90 720 0 720 0 0 -90z m220 -257 l0 -53 -940 0 -940 0 0
53 0 52 940 0 940 0 0 -52z"/>
</g>
</svg>
