<?xml version="1.0" standalone="no"?>
<!DOCTYPE svg PUBLIC "-//W3C//DTD SVG 20010904//EN"
 "http://www.w3.org/TR/2001/REC-SVG-20010904/DTD/svg10.dtd">
<svg version="1.0" xmlns="http://www.w3.org/2000/svg"
 width="286.000000pt" height="286.000000pt" viewBox="0 0 286.000000 286.000000"
 preserveAspectRatio="xMidYMid meet">

<g transform="translate(0.000000,286.000000) scale(0.100000,-0.100000)"
fill="#000000" stroke="none">
<path d="M1297 2647 c-52 -37 -100 -89 -141 -154 -22 -37 -31 -43 -60 -43 -29
0 -40 7 -67 43 -50 65 -111 127 -141 143 -62 33 -129 9 -144 -52 -11 -41 2
-166 21 -205 17 -36 17 -37 -15 -98 -18 -34 -50 -81 -71 -105 -78 -89 -403
-688 -464 -856 -24 -67 -26 -84 -21 -160 7 -106 18 -146 59 -206 47 -70 99
-94 203 -94 72 0 85 -3 94 -19 22 -42 40 -51 99 -51 76 0 105 20 202 141 51
63 103 114 151 149 168 122 259 193 356 280 l102 91 0 -33 c0 -49 -27 -165
-52 -228 -44 -109 -90 -172 -245 -332 -235 -243 -303 -370 -303 -565 0 -65 2
-74 23 -88 21 -14 124 -15 891 -13 846 3 868 3 882 22 11 16 14 65 14 235 0
643 -94 1115 -284 1440 -186 315 -461 492 -868 556 -32 5 -38 10 -38 30 0 59
-23 129 -54 161 -46 49 -72 51 -129 11z m67 -134 c3 -21 6 -57 6 -81 0 -63 28
-87 110 -95 36 -4 110 -18 165 -31 422 -103 678 -383 810 -889 66 -255 93
-479 102 -849 l6 -258 -798 0 -797 0 7 45 c10 68 41 152 77 209 18 28 98 119
178 201 169 173 206 222 259 337 61 133 91 278 91 442 0 52 6 82 22 115 30 61
37 161 13 184 -21 21 -59 22 -76 1 -7 -8 -16 -40 -20 -70 -14 -102 -105 -220
-291 -379 -59 -51 -149 -121 -199 -156 -132 -92 -174 -130 -264 -238 -44 -53
-88 -97 -98 -99 -15 -3 -15 3 8 53 33 76 33 117 -1 144 -33 26 -84 27 -115 2
-17 -14 -25 -32 -29 -72 l-5 -54 -63 -3 c-78 -4 -106 12 -133 74 -26 58 -35
160 -19 210 53 164 340 696 463 859 105 139 136 229 102 294 -20 40 -31 111
-16 111 6 0 33 -30 59 -67 80 -114 79 -113 174 -113 97 0 116 10 148 74 23 45
96 136 109 136 5 0 11 -17 15 -37z"/>
<path d="M844 2103 c-77 -76 -111 -207 -64 -245 54 -43 122 -5 178 101 57 105
39 181 -41 181 -29 0 -44 -8 -73 -37z"/>
<path d="M417 1329 c-11 -6 -25 -26 -33 -45 -12 -29 -12 -39 0 -68 17 -40 42
-56 86 -56 43 0 90 47 90 90 0 65 -86 112 -143 79z"/>
</g>
</svg>
