<?xml version="1.0" standalone="no"?>
<!DOCTYPE svg PUBLIC "-//W3C//DTD SVG 20010904//EN"
 "http://www.w3.org/TR/2001/REC-SVG-20010904/DTD/svg10.dtd">
<svg version="1.0" xmlns="http://www.w3.org/2000/svg"
 width="286.000000pt" height="286.000000pt" viewBox="0 0 286.000000 286.000000"
 preserveAspectRatio="xMidYMid meet">

<g transform="translate(0.000000,286.000000) scale(0.100000,-0.100000)"
fill="#000000" stroke="none">
<path d="M1347 2590 c-109 -28 -209 -116 -247 -218 -26 -68 -29 -177 -6 -239
l15 -42 -62 -63 c-133 -134 -184 -315 -142 -496 16 -68 53 -148 93 -200 14
-18 23 -34 21 -36 -2 -1 -24 -16 -49 -33 -164 -111 -306 -309 -379 -529 -42
-126 -61 -231 -68 -366 l-6 -118 908 0 908 0 -6 122 c-10 239 -76 452 -199
638 -51 78 -186 217 -248 255 -25 15 -46 29 -48 30 -1 1 17 31 41 66 58 88 79
154 84 274 5 89 2 109 -21 178 -32 96 -77 167 -144 229 l-51 48 16 37 c22 51
22 183 -1 242 -33 89 -120 176 -207 206 -56 20 -153 27 -202 15z m152 -116
c73 -21 135 -84 156 -158 21 -73 12 -130 -31 -203 -19 -31 -31 -60 -27 -64 4
-4 33 -25 65 -46 70 -47 132 -121 160 -193 18 -44 23 -75 23 -160 0 -99 -2
-109 -34 -173 -32 -68 -80 -124 -154 -184 l-39 -31 71 -26 c281 -108 494 -437
527 -816 l7 -80 -797 0 c-639 0 -796 3 -796 13 0 47 25 197 45 276 75 283 265
525 473 601 31 11 64 23 72 26 12 4 10 10 -10 25 -74 60 -134 129 -166 194
-97 196 -23 431 173 548 l52 31 -25 33 c-38 51 -54 97 -54 160 1 92 46 170
121 209 73 37 112 41 188 18z"/>
</g>
</svg>
