<?xml version="1.0" standalone="no"?>
<!DOCTYPE svg PUBLIC "-//W3C//DTD SVG 20010904//EN"
 "http://www.w3.org/TR/2001/REC-SVG-20010904/DTD/svg10.dtd">
<svg version="1.0" xmlns="http://www.w3.org/2000/svg"
 width="286.000000pt" height="286.000000pt" viewBox="0 0 286.000000 286.000000"
 preserveAspectRatio="xMidYMid meet">

<g transform="translate(0.000000,286.000000) scale(0.100000,-0.100000)"
fill="#000000" stroke="none">
<path d="M1347 2704 c-70 -22 -131 -87 -153 -159 -24 -86 -6 -163 53 -227 l25
-26 -49 -27 c-106 -60 -191 -121 -257 -184 -164 -158 -246 -332 -246 -524 0
-178 59 -307 184 -402 l35 -26 -35 -46 c-49 -64 -70 -109 -88 -187 -19 -78
-20 -145 -5 -199 8 -29 22 -45 62 -72 53 -35 160 -76 232 -89 133 -24 72 -33
-285 -45 -434 -15 -534 -42 -637 -173 -42 -53 -42 -85 -1 -125 61 -59 124 -67
248 -31 70 20 100 21 430 23 354 1 404 4 513 31 32 8 61 13 65 10 4 -2 43 -12
87 -22 67 -14 140 -17 445 -19 340 -2 370 -3 440 -23 41 -12 95 -22 120 -22
83 0 170 59 170 115 0 30 -91 114 -175 160 -94 53 -164 64 -490 75 -159 6
-308 14 -330 19 l-40 8 30 7 c17 4 57 14 90 22 87 21 192 72 225 110 30 35 47
101 37 151 -3 16 -10 53 -15 84 -13 69 -51 147 -98 198 l-35 39 35 22 c82 50
154 160 181 272 71 301 -117 638 -461 824 -38 21 -71 39 -73 40 -2 2 9 18 24
36 40 48 55 89 55 155 -1 166 -155 278 -313 227z m150 -121 c33 -22 53 -64 53
-114 0 -35 -6 -48 -39 -80 -32 -33 -45 -39 -80 -39 -82 0 -134 50 -134 128 0
102 113 162 200 105z m50 -407 c59 -30 138 -77 174 -104 307 -233 393 -608
184 -801 -78 -72 -70 -71 -487 -71 l-373 0 -51 30 c-100 57 -154 155 -162 290
-5 105 8 176 52 266 61 127 163 236 309 331 74 49 202 111 229 112 9 1 65 -23
125 -53z m259 -1111 c39 -30 90 -101 100 -138 l6 -27 -491 0 c-270 0 -491 3
-491 8 0 20 63 112 99 145 l41 37 352 0 351 0 33 -25z m134 -294 c0 -56 -102
-106 -281 -137 -134 -23 -440 -15 -552 15 -140 37 -197 71 -197 117 l0 24 515
0 c503 0 515 0 515 -19z m-456 -317 c105 -48 216 -63 525 -74 157 -5 312 -15
345 -21 64 -11 163 -58 192 -90 16 -18 16 -19 -12 -19 -16 0 -63 10 -104 22
-70 20 -100 22 -432 24 -353 2 -455 10 -540 40 -32 11 -44 11 -78 -1 -87 -31
-171 -37 -525 -39 -335 -2 -365 -4 -439 -24 -139 -39 -172 -25 -84 34 71 48
168 62 498 73 193 7 311 15 365 26 82 17 168 44 201 64 26 14 24 14 88 -15z"/>
<path d="M1392 1964 c-20 -13 -22 -24 -22 -95 l0 -79 -79 0 c-71 0 -82 -2 -95
-22 -21 -30 -20 -44 4 -68 16 -16 33 -20 95 -20 l75 0 0 -71 c0 -86 11 -109
50 -109 47 0 60 22 60 106 l0 74 73 0 c82 0 107 15 107 63 0 36 -25 47 -109
47 l-71 0 0 75 c0 62 -4 79 -20 95 -24 24 -38 25 -68 4z"/>
</g>
</svg>
