<?xml version="1.0" standalone="no"?>
<!DOCTYPE svg PUBLIC "-//W3C//DTD SVG 20010904//EN"
 "http://www.w3.org/TR/2001/REC-SVG-20010904/DTD/svg10.dtd">
<svg version="1.0" xmlns="http://www.w3.org/2000/svg"
 width="286.000000pt" height="286.000000pt" viewBox="0 0 286.000000 286.000000"
 preserveAspectRatio="xMidYMid meet">

<g transform="translate(0.000000,286.000000) scale(0.100000,-0.100000)"
fill="#000000" stroke="none">
<path d="M1369 2727 c-58 -22 -96 -54 -118 -100 -45 -92 -16 -204 67 -260 23
-16 42 -34 42 -40 0 -15 -159 -817 -166 -837 -4 -12 -314 756 -314 778 0 4 13
14 29 23 15 9 41 33 57 54 26 35 29 46 29 114 0 85 -16 118 -82 168 -46 35
-142 44 -194 18 -77 -39 -119 -104 -119 -185 0 -79 55 -164 120 -185 20 -6 20
-15 20 -422 0 -229 -2 -414 -3 -412 -2 2 -90 141 -196 307 -176 278 -191 305
-177 321 62 68 59 199 -7 269 -82 89 -244 80 -310 -16 -65 -95 -54 -198 29
-271 43 -37 64 -46 134 -53 25 -3 26 -7 62 -223 21 -121 54 -321 73 -445 20
-124 41 -240 47 -259 6 -19 38 -64 72 -100 34 -36 84 -100 110 -141 l49 -75
-11 -55 c-7 -40 -19 -65 -43 -90 -31 -34 -79 -122 -79 -148 0 -7 -7 -23 -15
-36 -41 -62 -36 -129 12 -186 46 -55 76 -63 363 -92 168 -17 1001 -18 1160 0
252 27 291 34 320 59 42 35 64 100 51 149 -6 22 -17 48 -25 59 -9 11 -16 37
-16 58 0 47 -23 104 -56 138 -16 17 -28 46 -36 85 l-11 59 49 75 c26 41 76
105 110 141 34 36 66 81 72 100 6 19 27 135 47 259 19 124 52 324 73 445 36
216 37 220 62 223 70 7 91 16 134 53 141 125 56 349 -133 349 -113 0 -201 -87
-201 -200 0 -44 21 -104 46 -131 14 -16 -1 -43 -177 -321 -106 -166 -194 -305
-196 -307 -1 -2 -3 173 -2 390 l0 394 47 30 c107 68 125 221 36 308 -44 44
-84 61 -144 61 -144 1 -238 -141 -186 -279 16 -40 67 -97 96 -107 9 -3 -36
-125 -141 -381 -84 -207 -156 -374 -160 -369 -3 4 -44 196 -89 426 l-83 419
21 16 c11 9 32 24 45 33 65 45 86 169 44 249 -43 81 -156 126 -238 96z m101
-112 c35 -18 50 -43 50 -84 0 -79 -105 -118 -156 -58 -40 47 -29 113 24 141
35 19 46 19 82 1z m-606 -91 c57 -58 17 -154 -64 -154 -66 0 -110 74 -78 133
29 54 98 64 142 21z m1231 -18 c63 -26 75 -97 26 -147 -40 -39 -82 -39 -122 0
-48 49 -37 120 24 146 40 18 32 17 72 1z m-1821 -247 c35 -41 34 -83 -3 -120
-60 -60 -151 -23 -151 61 0 56 34 90 89 90 32 0 44 -6 65 -31z m2441 6 c36
-35 35 -97 -1 -130 -38 -35 -87 -34 -125 4 -37 37 -38 79 -3 120 34 41 92 44
129 6z m-1206 -557 c41 -205 76 -381 79 -390 4 -17 -8 -18 -158 -18 -150 0
-162 1 -158 18 3 9 38 185 79 390 40 204 76 372 79 372 3 0 39 -168 79 -372z
m-388 -409 c-9 -3 -71 -9 -138 -13 l-123 -7 0 363 1 363 137 -350 c114 -289
135 -351 123 -356z m879 326 l0 -345 -42 5 c-24 3 -86 7 -139 11 l-96 6 136
334 c75 184 137 334 139 334 1 0 2 -155 2 -345z m-1442 -110 l159 -250 -120
-17 c-66 -10 -121 -17 -122 -15 -7 10 -90 546 -84 540 5 -5 80 -121 167 -258z
m1874 -7 c-25 -150 -46 -274 -46 -275 -2 -3 -200 29 -219 36 -15 5 4 40 128
236 186 293 175 275 179 275 1 0 -18 -123 -42 -272z m-637 -328 c170 -11 369
-32 498 -51 l77 -11 -17 -28 c-10 -15 -46 -57 -80 -94 l-62 -66 -48 9 c-254
47 -1212 47 -1466 0 l-48 -9 -62 66 c-34 37 -70 79 -80 94 l-17 28 77 11 c364
54 858 75 1228 51z m160 -331 c72 -5 144 -12 162 -15 30 -6 31 -7 21 -35 -5
-16 -8 -50 -6 -75 l3 -46 -65 6 c-36 3 -119 11 -185 18 -155 15 -755 15 -910
0 -66 -7 -149 -15 -185 -18 l-65 -6 3 46 c2 25 -1 59 -6 75 -9 27 -8 29 18 34
38 8 302 27 430 31 164 5 641 -4 785 -15z m-250 -249 c188 -10 439 -34 478
-46 25 -8 47 -56 47 -104 0 -26 9 -57 25 -84 38 -64 25 -75 -111 -91 -392 -48
-1031 -48 -1428 0 -155 19 -182 41 -136 110 11 17 20 38 20 48 0 28 38 95 63
111 41 27 424 61 732 64 61 1 200 -3 310 -8z"/>
</g>
</svg>
