<?xml version="1.0" standalone="no"?>
<!DOCTYPE svg PUBLIC "-//W3C//DTD SVG 20010904//EN"
 "http://www.w3.org/TR/2001/REC-SVG-20010904/DTD/svg10.dtd">
<svg version="1.0" xmlns="http://www.w3.org/2000/svg"
 width="286.000000pt" height="286.000000pt" viewBox="0 0 286.000000 286.000000"
 preserveAspectRatio="xMidYMid meet">

<g transform="translate(0.000000,286.000000) scale(0.100000,-0.100000)"
fill="#000000" stroke="none">
<path d="M1325 2600 c-99 -31 -194 -122 -229 -221 -23 -63 -24 -167 -2 -229
l15 -45 -51 -50 c-133 -130 -192 -312 -159 -487 14 -69 71 -196 102 -224 10
-9 19 -21 19 -25 0 -5 -26 -26 -57 -47 -75 -51 -185 -167 -247 -261 -120 -180
-196 -445 -196 -683 l0 -88 906 0 907 0 -6 142 c-7 156 -28 265 -76 396 -76
210 -208 388 -364 496 l-55 38 39 60 c58 90 81 160 86 263 10 165 -39 296
-151 408 l-63 63 15 39 c8 22 15 76 16 120 1 72 -3 88 -32 147 -36 74 -96 134
-170 170 -52 25 -192 35 -247 18z"/>
</g>
</svg>
