<?xml version="1.0" standalone="no"?>
<!DOCTYPE svg PUBLIC "-//W3C//DTD SVG 20010904//EN"
 "http://www.w3.org/TR/2001/REC-SVG-20010904/DTD/svg10.dtd">
<svg version="1.0" xmlns="http://www.w3.org/2000/svg"
 width="286.000000pt" height="286.000000pt" viewBox="0 0 286.000000 286.000000"
 preserveAspectRatio="xMidYMid meet">

<g transform="translate(0.000000,286.000000) scale(0.100000,-0.100000)"
fill="#000000" stroke="none">
<path d="M1293 2641 c-46 -33 -106 -101 -136 -153 -20 -34 -26 -38 -63 -38
-38 0 -43 3 -78 55 -77 111 -162 162 -222 134 -16 -8 -34 -25 -41 -39 -19 -37
-15 -147 7 -210 l19 -55 -24 -50 c-13 -27 -46 -77 -73 -110 -99 -123 -424
-723 -471 -873 -20 -60 -23 -86 -18 -150 16 -211 106 -307 283 -301 63 2 67 1
81 -24 17 -34 42 -47 89 -47 66 0 118 34 188 123 80 103 129 149 235 222 110
77 240 182 325 264 l68 66 -5 -65 c-12 -130 -61 -263 -134 -364 -21 -28 -105
-121 -188 -206 -209 -216 -261 -314 -272 -506 -5 -76 -3 -93 11 -107 16 -16
83 -17 890 -17 833 0 874 1 889 18 15 16 17 48 17 238 -1 1112 -280 1721 -885
1931 -38 13 -122 35 -185 47 l-114 23 -12 65 c-27 147 -92 194 -181 129z m442
-301 c576 -147 882 -862 845 -1975 l-5 -150 -80 -3 -80 -3 -1 363 c0 383 -9
503 -54 727 -65 323 -220 618 -406 774 -72 61 -206 132 -307 163 -64 20 -65
24 -38 97 13 33 23 33 126 7z m-766 -221 c34 -32 26 -108 -20 -184 -57 -94
-116 -124 -165 -82 -23 20 -28 32 -27 66 1 22 14 65 28 93 57 113 131 156 184
107z m-464 -791 c27 -12 55 -54 55 -83 0 -30 -29 -72 -58 -84 -84 -35 -167 73
-106 140 33 37 68 46 109 27z"/>
</g>
</svg>
