<?xml version="1.0" standalone="no"?>
<!DOCTYPE svg PUBLIC "-//W3C//DTD SVG 20010904//EN"
 "http://www.w3.org/TR/2001/REC-SVG-20010904/DTD/svg10.dtd">
<svg version="1.0" xmlns="http://www.w3.org/2000/svg"
 width="286.000000pt" height="286.000000pt" viewBox="0 0 286.000000 286.000000"
 preserveAspectRatio="xMidYMid meet">

<g transform="translate(0.000000,286.000000) scale(0.100000,-0.100000)"
fill="#000000" stroke="none">
<path d="M1410 2722 c-28 -8 -40 -36 -40 -89 l0 -53 -68 0 c-80 0 -112 -17
-112 -59 0 -43 17 -51 102 -51 l78 0 0 -98 0 -98 -37 -13 c-52 -19 -133 -104
-169 -176 -26 -55 -29 -69 -29 -162 0 -57 -1 -103 -2 -103 -2 0 -29 17 -60 37
-298 190 -644 169 -812 -51 -146 -191 -161 -405 -43 -601 45 -75 165 -195 260
-259 70 -48 73 -49 87 -30 8 10 14 21 14 24 0 3 -39 30 -86 60 -212 137 -331
342 -303 527 18 116 50 184 121 255 179 179 506 166 809 -34 87 -58 202 -168
260 -250 l47 -67 30 47 c52 83 141 179 224 242 315 237 656 252 872 38 65 -65
91 -115 106 -206 33 -204 -108 -431 -371 -595 -54 -34 -67 -47 -68 -68 -1 -58
-34 -62 -145 -15 -100 43 -221 78 -350 102 -137 25 -526 26 -665 1 -123 -21
-254 -59 -355 -103 -86 -36 -114 -41 -133 -22 -9 9 -12 -11 -12 -90 l0 -103
28 21 c41 30 187 86 298 114 296 74 678 76 987 5 107 -25 284 -91 321 -120
l26 -20 0 98 0 98 94 62 c175 117 312 267 366 403 35 86 39 211 10 301 -73
225 -322 383 -580 365 -131 -9 -187 -27 -380 -123 -3 -2 -5 30 -6 70 0 60 -6
85 -31 140 -39 82 -110 160 -169 184 l-44 18 0 98 0 97 79 0 c71 0 82 2 95 22
21 30 20 44 -4 68 -16 16 -33 20 -95 20 l-75 0 0 59 c0 35 -5 62 -12 68 -19
15 -41 21 -58 15z"/>
<path d="M533 1785 c-93 -25 -157 -78 -206 -169 -18 -34 -22 -57 -22 -141 0
-95 2 -103 34 -163 42 -78 161 -192 256 -247 38 -22 76 -48 84 -57 13 -15 18
-15 50 -2 117 50 415 104 569 104 l77 0 -3 92 c-3 76 -8 102 -29 143 -148 293
-549 510 -810 440z"/>
<path d="M2065 1785 c-206 -45 -427 -210 -535 -400 -43 -77 -45 -83 -48 -176
l-4 -96 92 -7 c165 -12 356 -53 489 -105 l55 -20 54 31 c151 86 284 211 343
322 27 51 34 74 37 143 5 98 -14 149 -83 212 -105 96 -245 130 -400 96z"/>
<path d="M1180 733 c-171 -17 -358 -63 -479 -119 -78 -36 -110 -41 -129 -22
-9 9 -12 -11 -12 -90 l0 -101 36 24 c82 55 304 123 495 150 137 19 461 19 598
0 189 -27 414 -95 496 -150 l35 -24 0 106 c0 92 -2 104 -13 89 -18 -24 -45
-19 -167 31 -188 78 -402 114 -663 111 -89 0 -178 -3 -197 -5z"/>
<path d="M1106 464 c-128 -17 -281 -57 -370 -95 -39 -17 -86 -37 -105 -44
l-35 -13 85 -40 c411 -198 1007 -198 1417 1 l84 40 -34 12 c-18 7 -65 26 -104
43 -95 42 -241 79 -381 97 -140 18 -420 18 -557 -1z"/>
</g>
</svg>
