<?xml version="1.0" standalone="no"?>
<!DOCTYPE svg PUBLIC "-//W3C//DTD SVG 20010904//EN"
 "http://www.w3.org/TR/2001/REC-SVG-20010904/DTD/svg10.dtd">
<svg version="1.0" xmlns="http://www.w3.org/2000/svg"
 width="286.000000pt" height="286.000000pt" viewBox="0 0 286.000000 286.000000"
 preserveAspectRatio="xMidYMid meet">

<g transform="translate(0.000000,286.000000) scale(0.100000,-0.100000)"
fill="#000000" stroke="none">
<path d="M536 2568 c-13 -19 -16 -57 -16 -221 0 -228 -16 -190 133 -315 l87
-72 0 -467 0 -467 -40 -68 c-23 -37 -47 -68 -54 -68 -7 0 -20 -8 -29 -18 -13
-14 -17 -45 -19 -147 l-3 -130 -100 -5 c-127 -6 -127 -6 -123 -178 3 -109 5
-125 22 -138 30 -21 2042 -21 2072 0 17 13 19 29 22 138 4 172 4 172 -123 178
l-100 5 -3 130 c-2 102 -6 133 -19 147 -9 10 -22 18 -29 18 -7 0 -31 31 -54
68 l-40 68 0 470 1 469 81 65 c44 36 93 77 109 92 l29 26 0 199 c0 163 -3 202
-16 221 -15 21 -21 22 -189 22 -203 0 -205 -1 -205 -86 l0 -54 -130 0 -130 0
0 54 c0 87 2 86 -240 86 -242 0 -240 1 -240 -86 l0 -54 -130 0 -130 0 0 54 c0
85 -2 86 -205 86 -168 0 -174 -1 -189 -22z m1779 -388 c16 -52 49 -50 -885
-50 -934 0 -901 -2 -885 50 6 20 8 20 885 20 877 0 879 0 885 -20z m-231 -176
c12 -12 13 -20 6 -35 -10 -18 -29 -19 -660 -19 -631 0 -650 1 -660 19 -7 15
-6 23 6 35 14 14 87 16 654 16 567 0 640 -2 654 -16z m-2 -961 c22 -20 22 -27
2 -47 -14 -14 -87 -16 -654 -16 -567 0 -640 2 -654 16 -20 19 -20 23 1 46 15
17 49 18 651 18 577 0 637 -2 654 -17z m69 -143 c25 -14 25 -46 0 -60 -27 -14
-1415 -14 -1442 0 -24 13 -25 46 -1 59 24 14 1416 15 1443 1z m84 -325 l0 -30
-805 0 c-768 0 -805 1 -808 18 -10 50 -50 47 810 45 l803 -3 0 -30z"/>
</g>
</svg>
