<?xml version="1.0" standalone="no"?>
<!DOCTYPE svg PUBLIC "-//W3C//DTD SVG 20010904//EN"
 "http://www.w3.org/TR/2001/REC-SVG-20010904/DTD/svg10.dtd">
<svg version="1.0" xmlns="http://www.w3.org/2000/svg"
 width="286.000000pt" height="286.000000pt" viewBox="0 0 286.000000 286.000000"
 preserveAspectRatio="xMidYMid meet">

<g transform="translate(0.000000,286.000000) scale(0.100000,-0.100000)"
fill="#000000" stroke="none">
<path d="M1382 2750 c-86 -21 -144 -92 -150 -185 -6 -88 30 -152 113 -200 16
-10 12 -38 -66 -418 -46 -224 -86 -407 -89 -407 -3 0 -69 170 -148 377 l-143
377 37 35 c46 45 64 87 64 151 0 112 -88 200 -200 200 -112 0 -200 -88 -200
-199 0 -27 4 -61 9 -74 16 -41 73 -99 115 -116 l39 -17 -3 -224 c-1 -124 -5
-303 -9 -398 l-6 -174 -203 312 -202 312 24 29 c82 98 51 245 -65 303 -91 45
-184 27 -247 -49 -95 -116 -38 -287 110 -326 l46 -13 86 -440 c48 -243 92
-458 97 -479 7 -25 33 -63 78 -110 37 -40 87 -102 110 -140 40 -63 42 -70 36
-117 -5 -40 -16 -62 -51 -102 -24 -28 -51 -72 -60 -97 -8 -25 -25 -65 -37 -89
-40 -79 -18 -158 60 -212 67 -46 368 -121 608 -151 129 -17 461 -17 590 0 213
27 520 99 585 138 71 42 95 143 52 217 -12 20 -22 53 -22 72 0 44 -19 88 -58
137 -20 25 -32 54 -37 87 -6 47 -4 54 36 117 23 38 73 100 110 140 45 47 71
85 78 110 5 21 49 236 97 479 l86 440 46 13 c148 39 205 210 110 326 -63 76
-156 94 -247 49 -116 -58 -147 -205 -65 -303 l24 -29 -202 -312 -203 -312 -6
174 c-4 95 -8 274 -9 398 l-3 224 39 17 c42 17 99 75 115 116 5 13 9 47 9 74
0 111 -88 199 -200 199 -112 0 -200 -88 -200 -200 0 -64 18 -106 64 -151 l37
-35 -143 -377 c-79 -207 -145 -377 -148 -377 -3 0 -43 183 -89 407 -78 380
-82 408 -66 418 75 44 115 108 115 185 0 61 -17 105 -56 143 -52 52 -125 74
-192 57z m263 -1566 c177 -10 404 -55 599 -117 74 -24 103 -51 91 -87 -12 -38
-46 -45 -116 -21 -103 33 -244 67 -384 92 -116 21 -161 24 -405 24 -244 0
-289 -3 -405 -24 -140 -25 -281 -59 -384 -92 -70 -24 -104 -17 -116 21 -12 36
17 63 91 87 210 67 439 110 654 122 132 8 173 8 375 -5z m545 -324 c34 -18 44
-48 25 -76 l-15 -24 -770 0 -770 0 -15 24 c-18 27 -9 57 23 75 24 14 1496 15
1522 1z m-1395 -264 c230 -60 386 -79 635 -79 249 0 405 19 635 79 77 20 154
39 171 41 55 8 84 -47 46 -85 -21 -21 -199 -73 -347 -101 -192 -36 -290 -45
-505 -45 -215 0 -313 9 -505 45 -148 28 -326 80 -347 101 -38 38 -9 93 46 85
17 -2 94 -21 171 -41z m-136 -210 c252 -81 488 -117 771 -117 285 0 506 34
772 117 99 32 122 36 143 26 30 -14 34 -61 8 -84 -10 -9 -61 -29 -113 -46
-409 -130 -832 -161 -1244 -92 -191 32 -453 106 -488 138 -36 31 -15 91 31 92
8 0 62 -15 120 -34z"/>
</g>
</svg>
