<?xml version="1.0" standalone="no"?>
<!DOCTYPE svg PUBLIC "-//W3C//DTD SVG 20010904//EN"
 "http://www.w3.org/TR/2001/REC-SVG-20010904/DTD/svg10.dtd">
<svg version="1.0" xmlns="http://www.w3.org/2000/svg"
 width="286.000000pt" height="286.000000pt" viewBox="0 0 286.000000 286.000000"
 preserveAspectRatio="xMidYMid meet">

<g transform="translate(0.000000,286.000000) scale(0.100000,-0.100000)"
fill="#000000" stroke="none">
<path d="M1330 2694 c-70 -30 -130 -108 -145 -187 -10 -52 12 -131 50 -181
l33 -43 -70 -38 c-239 -129 -404 -326 -463 -551 -20 -77 -19 -226 1 -295 32
-108 101 -207 184 -262 l24 -17 -25 -27 c-56 -61 -87 -121 -102 -200 -6 -32
-6 -32 13 -13 19 19 36 20 588 20 497 0 570 -2 590 -16 21 -14 22 -14 22 5 0
38 -40 126 -81 180 l-41 55 28 20 c16 11 48 40 70 64 154 163 163 449 23 684
-79 134 -251 289 -407 367 l-43 22 25 32 c60 78 74 184 35 264 -53 109 -199
165 -309 117z m132 -741 c14 -13 18 -31 18 -90 l0 -73 68 0 c80 0 112 -17 112
-59 0 -43 -17 -51 -102 -51 l-78 0 0 -75 c0 -80 -18 -115 -58 -115 -36 0 -51
31 -54 110 l-3 75 -78 3 c-69 3 -79 5 -93 27 -34 53 8 85 111 85 l65 0 0 74
c0 54 4 79 16 90 20 21 53 20 76 -1z m370 -780 c24 -21 23 -48 -2 -73 -19 -19
-33 -20 -403 -20 -330 0 -386 2 -405 16 -24 16 -28 44 -12 75 10 18 25 19 407
19 355 0 398 -2 415 -17z"/>
<path d="M2030 835 c0 -45 6 -45 -606 -45 l-582 0 -21 28 -20 27 -1 -63 c0
-77 18 -121 63 -156 48 -37 147 -75 246 -96 70 -14 79 -18 54 -23 -50 -10
-167 -17 -428 -27 -348 -13 -418 -32 -527 -141 -63 -62 -71 -90 -42 -134 9
-14 32 -35 52 -47 45 -28 133 -29 212 -3 48 16 107 19 450 25 328 5 408 10
471 24 73 18 79 18 150 0 62 -15 139 -19 469 -24 361 -7 401 -9 469 -29 41
-11 82 -21 90 -21 67 0 171 70 171 115 0 33 -33 70 -112 125 -130 92 -183 101
-628 120 -318 13 -334 16 -201 46 124 28 236 84 264 132 23 39 34 142 19 168
-11 18 -11 18 -12 -1z"/>
</g>
</svg>
